<?xml version="1.0" encoding="utf-8"?>
<!-- Generator: Adobe Illustrator 24.2.3, SVG Export Plug-In . SVG Version: 6.00 Build 0)  -->
<svg version="1.1" id="Layer_1" xmlns="http://www.w3.org/2000/svg" xmlns:xlink="http://www.w3.org/1999/xlink" x="0px" y="0px"
	 viewBox="0 0 131 131" style="enable-background:new 0 0 131 131;" xml:space="preserve">
<style type="text/css">
	.st0{fill:#F2F2F2;}
	.st1{fill:#520B35;}
	.st2{fill:#2EF39E;}
	.st3{fill:#FF7814;}
	.st4{fill:#FFFFFF;}
	.st5{fill:#C8262E;}
	.st6{fill:#EBFBF5;}
	.st7{fill:#F8C320;}
	.st8{fill:#E54730;}
	.st9{fill:#E1590E;}
</style>
<path id="Union_1" class="st0" d="M119.5,65.1c0,30.5-24.7,55.2-55.2,55.2S9.1,95.5,9.1,65.1c0-30.5,24.7-55.2,55.2-55.2
	C94.8,9.9,119.5,34.6,119.5,65.1C119.5,65.1,119.5,65.1,119.5,65.1z"/>
<path id="Union_2" class="st0" d="M65.5,131C29.3,131,0,101.7,0,65.5S29.3,0,65.5,0S131,29.3,131,65.5C131,101.7,101.7,131,65.5,131
	z M65.5,2.1c-35,0-63.4,28.4-63.4,63.4s28.4,63.4,63.4,63.4s63.4-28.4,63.4-63.4l0,0C128.9,30.5,100.5,2.1,65.5,2.1z"/>
<path id="Union_3" class="st1" d="M106.3,87.7l0.4,0.1l-0.4,0.1c-2.6,0.6-4.6,2.7-5.3,5.3l-0.1,0.4l-0.1-0.4
	c-0.6-2.6-2.7-4.6-5.3-5.3l-0.4-0.1l0.4-0.1c2.6-0.6,4.6-2.7,5.3-5.2L101,82l0.1,0.4C101.7,85,103.7,87.1,106.3,87.7L106.3,87.7z"/>
<path id="Union_4" class="st2" d="M94.8,99.1h-61l7.8-28.9h45.5L94.8,99.1z"/>
<path id="Union_5" class="st3" d="M94.8,99.1h-61l7.8-28.9h45.5L94.8,99.1z"/>
<path id="Union_6" class="st4" d="M88.8,76.5l-49.7,3l-2.6,9.8l20.5-1.9L49,99.1h11.7l10.8-11.2l19.5-3L88.8,76.5z"/>
<path id="Union_7" class="st5" d="M86.7,48.2c0,15.8-22.3,39.6-22.3,39.6S42,64,42,48.2c0-12.3,10-22.3,22.3-22.4
	S86.7,35.9,86.7,48.2C86.7,48.2,86.7,48.2,86.7,48.2z"/>
<path id="Union_8" class="st6" d="M64.3,39.4c5.4,0,9.7,4.3,9.7,9.7s-4.3,9.7-9.7,9.7s-9.7-4.4-9.7-9.7c0,0,0,0,0,0
	C54.6,43.8,59,39.4,64.3,39.4z"/>
<path id="Union_9" class="st7" d="M99.2,39.3l0.4,0.1l-0.4,0.1c-2.1,0.5-3.8,2.2-4.3,4.3l-0.1,0.4l-0.1-0.4
	c-0.5-2.1-2.2-3.8-4.3-4.3l-0.4-0.1l0.4-0.1c2.1-0.5,3.8-2.2,4.3-4.3l0.1-0.4l0.1,0.4C95.5,37.1,97.1,38.8,99.2,39.3z"/>
<path id="Union_10" class="st8" d="M33.4,49.9l0.6,0.2l-0.6,0.2c-3.6,0.8-6.5,3.6-7.5,7.2L25.7,58l-0.2-0.6c-1-3.6-3.9-6.4-7.5-7.2
	l-0.6-0.2l0.6-0.2c3.6-0.8,6.5-3.6,7.5-7.2l0.2-0.6l0.2,0.6C26.8,46.3,29.7,49.1,33.4,49.9L33.4,49.9z"/>
<path id="Union_11" class="st9" d="M39.5,37.1l0.4,0.1l-0.4,0.1c-2.3,0.6-4.1,2.4-4.6,4.6l-0.1,0.4l-0.1-0.4
	c-0.6-2.3-2.4-4.1-4.6-4.6l-0.4-0.1l0.4-0.1c2.3-0.6,4.1-2.4,4.6-4.6l0.1-0.4l0.1,0.4C35.5,34.7,37.3,36.5,39.5,37.1z"/>
</svg>
