<?xml version="1.0" encoding="utf-8"?>
<!-- Generator: Adobe Illustrator 24.2.3, SVG Export Plug-In . SVG Version: 6.00 Build 0)  -->
<svg version="1.1" id="call-us-icon" xmlns="http://www.w3.org/2000/svg" xmlns:xlink="http://www.w3.org/1999/xlink" x="0px"
	 y="0px" viewBox="0 0 131 131" style="enable-background:new 0 0 131 131;" xml:space="preserve">
<style type="text/css">
	.st0{fill:#F2F2F2;}
	.st1{fill:#F36220;}
	.st2{fill:#FAB21D;}
	.st3{fill:#DF453E;}
	.st4{fill:#C8262E;}
	.st5{fill:#7E272A;}
	.st6{fill:#520B35;}
	.st7{fill:#800F34;}
	.st8{fill:#DA2336;}
</style>
<path id="Union_22" class="st0" d="M120.8,65.5c0,30.5-24.7,55.3-55.3,55.3S10.3,96,10.3,65.5C10.3,35,35,10.3,65.5,10.3
	C96.1,10.3,120.8,35,120.8,65.5C120.8,65.5,120.8,65.5,120.8,65.5z"/>
<path id="Union_23" class="st0" d="M65.5,131C29.3,131,0,101.7,0,65.5S29.3,0,65.5,0S131,29.3,131,65.5
	C131,101.7,101.7,131,65.5,131z M65.5,2.1c-35,0-63.4,28.4-63.4,63.4s28.4,63.4,63.4,63.4s63.4-28.4,63.4-63.4l0,0
	C128.9,30.5,100.5,2.1,65.5,2.1z"/>
<path id="Union_24" class="st1" d="M82.1,24.1l0.7,0.2l-0.7,0.2c-4.4,1.1-7.7,4.5-8.8,8.8L73,34l-0.2-0.7c-1.1-4.3-4.5-7.7-8.8-8.8
	l-0.7-0.2l0.7-0.2c4.3-1.1,7.7-4.5,8.8-8.8l0.2-0.7l0.2,0.7C74.3,19.6,77.7,23,82.1,24.1z"/>
<path id="Union_25" class="st2" d="M94.5,25.2l0.3,0.1l-0.3,0.1c-1.6,0.4-2.8,1.6-3.2,3.2l-0.1,0.3l-0.1-0.3
	c-0.4-1.6-1.6-2.8-3.2-3.2l-0.3-0.1l0.3-0.1c1.6-0.4,2.8-1.6,3.2-3.2l0.1-0.3l0.1,0.3C91.7,23.6,92.9,24.8,94.5,25.2z"/>
<path id="Union_26" class="st3" d="M37,68.1l0.5,0.1L37,68.3c-2.7,0.7-4.7,2.7-5.4,5.4l-0.1,0.5l-0.1-0.5C30.7,71,28.7,69,26,68.3
	l-0.5-0.1l0.5-0.1c2.7-0.7,4.7-2.7,5.4-5.4l0.1-0.5l0.1,0.5C32.3,65.3,34.4,67.4,37,68.1L37,68.1z"/>
<path id="Union_27" class="st4" d="M86,96.1l0.4,0.1L86,96.4c-2.6,0.6-4.6,2.7-5.3,5.3l-0.1,0.4l-0.1-0.4c-0.6-2.6-2.7-4.6-5.3-5.3
	l-0.4-0.1l0.4-0.1c2.6-0.6,4.6-2.7,5.3-5.3l0.1-0.4l0.1,0.4C81.4,93.5,83.4,95.5,86,96.1z"/>
<path id="Union_28" class="st5" d="M50.6,91.2c0,0.1,0,0.2,0.1,0.3c0,0.1,1.2,3.2-1.1,4.7c-0.5,0.3-1,0.4-1.5,0.5
	c0-0.3-0.1-0.7-0.2-1c-0.5-2.6-2.1-4.5-4.1-4.9c-1.6-0.4-3.3,0.4-4.1,1.9c-0.7,1.7-0.1,3.7,1.5,4.7c1.2,0.8,2.6,1.4,4.1,1.7
	c-0.2,0.7-0.6,1.4-1.2,1.9c-1,0.6-2.2,0.7-3.3,0.4c-2-0.5-3.6-1.7-4.6-3.5c-0.3-0.6-1-0.9-1.7-0.6c-0.6,0.3-0.9,1-0.7,1.7
	c1.3,2.5,3.6,4.2,6.3,4.9c0.7,0.2,1.4,0.3,2.1,0.3c1.2,0,2.4-0.3,3.4-1.1c1.2-0.9,2-2.2,2.2-3.7c1.1,0,2.2-0.3,3.1-0.9
	c1.8-1.2,2.8-3.4,2.6-5.5C52.6,92.4,51.6,91.8,50.6,91.2z M42.8,95.3c-0.7-0.5-0.9-1.1-0.7-1.6c0.2-0.3,0.5-0.5,0.8-0.5
	c0.1,0,0.2,0,0.3,0c1.2,0.3,1.9,1.7,2.2,3c0,0.1,0,0.2,0,0.2C44.5,96.2,43.6,95.8,42.8,95.3z"/>
<path id="Union_29" class="st4" d="M87.1,29.8c3.4,0.3,13.2,5.6,14.3,14c1.4,10.2-22.7,48.9-36.8,50.7c-1.4,0.2-2.8,0.2-4.2,0.1
	c-10-0.8-15.4-7.8-15.4-11.2c-0.1-3.4,4.8-9.3,8.5-10c2.9-0.4,5.6,1.7,7.2,3.1c1.7,1.5,3.7,3.2,8.3,1.3c4.8-2,17.4-19.6,17.7-24.4
	c0.2-3.3-2.9-4.6-5.6-7.1c-1.9-1.8-3-4.4-2.9-7.1C78.3,36.7,83.2,29.5,87.1,29.8z"/>
<path id="Union_30" class="st6" d="M59.6,63.8c-0.6,0-1.2-0.4-1.3-1.1C57,55.6,61.8,48.6,69,47.3c0.7-0.1,1.4,0.4,1.5,1.1
	c0.1,0.7-0.3,1.3-1,1.5c-5.8,1.1-9.7,6.6-8.7,12.5c0.1,0.7-0.3,1.4-1,1.5C59.7,63.8,59.7,63.8,59.6,63.8L59.6,63.8z"/>
<path id="Union_31" class="st7" d="M52.5,63.5c-0.6,0-1.2-0.4-1.3-1.1c-1.8-10.1,4.9-19.8,15-21.7c0,0,0,0,0,0
	c0.7-0.1,1.4,0.3,1.5,1s-0.3,1.4-1,1.5c-8.7,1.6-14.5,9.9-13,18.7c0,0,0,0,0,0c0.1,0.7-0.3,1.4-1,1.5C52.6,63.5,52.5,63.5,52.5,63.5
	L52.5,63.5z"/>
<path id="Union_32" class="st8" d="M44.9,63.1c-0.6,0-1.2-0.4-1.3-1.1C41.3,48.9,50,36.2,63.2,33.8c0.7-0.1,1.4,0.3,1.5,1
	s-0.3,1.4-1,1.5c-11.8,2.2-19.6,13.5-17.5,25.3c0.1,0.7-0.3,1.4-1,1.5C45.1,63.1,45,63.1,44.9,63.1z"/>
</svg>
