<?xml version="1.0" encoding="utf-8"?>
<!-- Generator: Adobe Illustrator 24.2.3, SVG Export Plug-In . SVG Version: 6.00 Build 0)  -->
<svg version="1.1" id="email-icon" xmlns="http://www.w3.org/2000/svg" xmlns:xlink="http://www.w3.org/1999/xlink" x="0px" y="0px"
	 viewBox="0 0 131 131" style="enable-background:new 0 0 131 131;" xml:space="preserve">
<style type="text/css">
	.st0{fill:#F2F2F2;}
	.st1{fill:#E54730;}
	.st2{fill:#FAB21D;}
	.st3{fill:#520B35;}
	.st4{fill:#800F34;}
	.st5{fill:#C8262E;}
	.st6{fill:#8A242B;}
	.st7{fill:#FF7814;}
	.st8{fill:#FFFFFF;}
</style>
<path id="Union_12" class="st0" d="M120.8,65.5c0,30.5-24.7,55.3-55.3,55.3S10.3,96,10.3,65.5C10.3,35,35,10.3,65.5,10.3
	C96.1,10.3,120.8,35,120.8,65.5C120.8,65.5,120.8,65.5,120.8,65.5z"/>
<path id="Union_13" class="st0" d="M65.5,131C29.3,131,0,101.7,0,65.5S29.3,0,65.5,0S131,29.3,131,65.5
	C131,101.7,101.7,131,65.5,131z M65.5,2.1c-35,0-63.4,28.4-63.4,63.4s28.4,63.4,63.4,63.4s63.4-28.4,63.4-63.4l0,0
	C128.9,30.5,100.5,2.1,65.5,2.1z"/>
<path id="Union_14" class="st1" d="M95.7,32.6l0.6,0.2l-0.6,0.2c-3.6,0.9-6.4,3.7-7.3,7.3l-0.2,0.6L88,40.3
	c-0.9-3.6-3.7-6.4-7.3-7.3l-0.6-0.2l0.6-0.2c3.6-0.9,6.4-3.7,7.3-7.3l0.2-0.6l0.2,0.6C89.2,28.9,92.1,31.7,95.7,32.6z"/>
<path id="Union_15" class="st2" d="M107.4,41.1l0.4,0.1l-0.4,0.1c-2.1,0.5-3.8,2.2-4.3,4.3L103,46l-0.1-0.4
	c-0.5-2.1-2.2-3.8-4.3-4.3l-0.4-0.1l0.4-0.1c2.1-0.5,3.8-2.2,4.3-4.3l0.1-0.4l0.1,0.4C103.6,38.9,105.3,40.6,107.4,41.1z"/>
<path id="Union_16" class="st3" d="M55,99.6l0.8,0.2L55,100c-4.4,1-7.9,4.4-9.1,8.8l-0.2,0.7l-0.2-0.7c-1.2-4.4-4.7-7.7-9.1-8.8
	l-0.8-0.2l0.8-0.2c4.4-1,7.9-4.4,9.1-8.8l0.2-0.7l0.2,0.7C47.1,95.3,50.6,98.6,55,99.6L55,99.6z"/>
<path id="Union_17" class="st4" d="M27.9,69.6l0.4,0.1l-0.4,0.1c-2.3,0.6-4.1,2.4-4.6,4.6l-0.1,0.4L23,74.5
	c-0.6-2.3-2.4-4.1-4.6-4.6L18,69.7l0.4-0.1c2.3-0.6,4.1-2.4,4.6-4.6l0.1-0.4l0.1,0.4C23.8,67.3,25.6,69.1,27.9,69.6z"/>
<path id="Union_18" class="st5" d="M93.9,87.5H37.1c-2.7,0-4.9-2.2-4.9-4.9c0,0,0,0,0,0V48.4c0-2.7,2.2-4.9,4.9-4.9h56.8
	c2.7,0,4.9,2.2,4.9,4.9v34.3C98.8,85.4,96.6,87.5,93.9,87.5C93.9,87.5,93.9,87.5,93.9,87.5z"/>
<path id="Union_19" class="st6" d="M68.4,69.3c-1.7,1.4-4.2,1.4-5.8,0L59,66.2L34,86.4c0.9,0.7,2,1.2,3.2,1.2h56.8
	c1.2,0,2.3-0.4,3.2-1.2l-25-20.2L68.4,69.3z"/>
<path id="Union_20" class="st7" d="M68.4,69.3l28.6-24.7c-0.9-0.7-2-1.2-3.2-1.2H37.1c-1.2,0-2.3,0.4-3.2,1.2l28.6,24.7
	C64.3,70.8,66.8,70.8,68.4,69.3L68.4,69.3z"/>
<path id="Union_21" class="st8" d="M69.1,63.1c0,2-1.6,3.6-3.6,3.6c-2,0-3.6-1.6-3.6-3.6c0-2,1.6-3.6,3.6-3.6
	C67.5,59.5,69.1,61.1,69.1,63.1C69.1,63.1,69.1,63.1,69.1,63.1z"/>
</svg>
